HIERARCHY
ROOT Hips
{
	OFFSET 0.000000 0.000000 0.000000
	CHANNELS 6 Xposition Yposition Zposition Xrotation Yrotation Zrotation
	JOINT LeftUpLeg_virtual
	{
		OFFSET 0.000000 0.000000 0.000000
		CHANNELS 3 Xrotation Yrotation Zrotation
		JOINT LeftUpLeg
		{
			OFFSET 10.205400 -3.823500 0.155100
			CHANNELS 3 Xrotation Yrotation Zrotation
			JOINT LeftLeg
			{
				OFFSET 0.708757 -12.982077 0.567790
				CHANNELS 3 Xrotation Yrotation Zrotation
				JOINT LeftFoot
				{
					OFFSET -0.708756 -10.717838 -2.184338
					CHANNELS 3 Xrotation Yrotation Zrotation
					JOINT LeftToeBase
					{
						OFFSET 0.108149 -7.191104 7.560241
						CHANNELS 3 Xrotation Yrotation Zrotation
						JOINT LeftToe_End
						{
							OFFSET 0.070230 0.081724 4.490308
							CHANNELS 3 Xrotation Yrotation Zrotation
							End Site
							{
								OFFSET 0 0 0
							}
						}
					}
				}
			}
		}
	}
	JOINT RightUpLeg_virtual
	{
		OFFSET 0.000000 0.000000 0.000000
		CHANNELS 3 Xrotation Yrotation Zrotation
		JOINT RightUpLeg
		{
			OFFSET -10.205400 -3.823500 0.005500
			CHANNELS 3 Xrotation Yrotation Zrotation
			JOINT RightLeg
			{
				OFFSET -0.708756 -12.982134 0.610632
				CHANNELS 3 Xrotation Yrotation Zrotation
				JOINT RightFoot
				{
					OFFSET 0.708754 -10.717769 -1.945823
					CHANNELS 3 Xrotation Yrotation Zrotation
					JOINT RightToeBase
					{
						OFFSET -0.108140 -7.191069 7.372968
						CHANNELS 3 Xrotation Yrotation Zrotation
						JOINT RightToe_End
						{
							OFFSET -0.070227 0.081735 4.479403
							CHANNELS 3 Xrotation Yrotation Zrotation
							End Site
							{
								OFFSET 0 0 0
							}
						}
					}
				}
			}
		}
	}
	JOINT Spine_virtual
	{
		OFFSET 0.000000 0.000000 0.000000
		CHANNELS 3 Xrotation Yrotation Zrotation
		JOINT Spine
		{
			OFFSET 0.000000 6.876099 0.125700
			CHANNELS 3 Xrotation Yrotation Zrotation
			JOINT Spine1
			{
				OFFSET 0.000000 5.730043 0.104720
				CHANNELS 3 Xrotation Yrotation Zrotation
				JOINT Spine1_split
				{
					OFFSET 0.000000 5.730043 0.104720
					CHANNELS 3 Xrotation Yrotation Zrotation
					JOINT Spine2
					{
						OFFSET 0.000000 5.730043 0.104720
						CHANNELS 3 Xrotation Yrotation Zrotation
						JOINT Neck_virtual
						{
							OFFSET 0.000000 0.000000 0.000000
							CHANNELS 3 Xrotation Yrotation Zrotation
							JOINT Neck
							{
								OFFSET 0.000000 10.314075 0.188496
								CHANNELS 3 Xrotation Yrotation Zrotation
								JOINT Head
								{
									OFFSET 0.000000 7.643700 -2.377400
									CHANNELS 3 Xrotation Yrotation Zrotation
									JOINT HeadTop_End
									{
										OFFSET 0.000000 43.788605 -13.619600
										CHANNELS 3 Xrotation Yrotation Zrotation
										End Site
										{
											OFFSET 0 0 0
										}
									}
								}
							}
						}
						JOINT LeftShoulder_virtual
						{
							OFFSET 0.000000 0.000000 0.000000
							CHANNELS 3 Xrotation Yrotation Zrotation
							JOINT LeftShoulder
							{
								OFFSET 2.196100 4.412489 0.087492
								CHANNELS 3 Xrotation Yrotation Zrotation
								JOINT LeftShoulder_split
								{
									OFFSET 2.196100 4.412489 0.087492
									CHANNELS 3 Xrotation Yrotation Zrotation
									JOINT LeftArm
									{
										OFFSET 8.771219 -2.981674 -0.026999
										CHANNELS 3 Xrotation Yrotation Zrotation
										JOINT LeftForeArm
										{
											OFFSET 8.512804 0.000000 -0.000000
											CHANNELS 3 Xrotation Yrotation Zrotation
											JOINT LeftHand
											{
												OFFSET 18.484802 0.000000 -0.000000
												CHANNELS 3 Xrotation Yrotation Zrotation
												End Site
												{
													OFFSET 0 0 0
												}
											}
										}
									}
								}
							}
						}
						JOINT RightShoulder_virtual
						{
							OFFSET 0.000000 0.000000 0.000000
							CHANNELS 3 Xrotation Yrotation Zrotation
							JOINT RightShoulder
							{
								OFFSET -2.196100 4.412496 0.070690
								CHANNELS 3 Xrotation Yrotation Zrotation
								JOINT RightShoulder_split
								{
									OFFSET -2.196100 4.412496 0.070690
									CHANNELS 3 Xrotation Yrotation Zrotation
									JOINT RightArm
									{
										OFFSET -8.771282 -2.981682 -0.094208
										CHANNELS 3 Xrotation Yrotation Zrotation
										JOINT RightForeArm
										{
											OFFSET -8.494598 0.000000 0.000000
											CHANNELS 3 Xrotation Yrotation Zrotation
											JOINT RightHand
											{
												OFFSET -18.483803 0.000000 0.000001
												CHANNELS 3 Xrotation Yrotation Zrotation
												End Site
												{
													OFFSET 0 0 0
												}
											}
										}
									}
								}
							}
						}
					}
				}
			}
		}
	}
}
MOTION
Frames: 8
Frame Time: 0.03333333
1.952471 29.598909 0.079721 0.000000 0.000000 0.000000 155.009832 -87.433033 155.752027 -24.529018 31.695513 43.209027 32.522998 -15.579132 -0.092563 -17.504595 10.078808 -25.650195 -0.334585 -0.516249 -0.252940 0.000000 0.000000 0.000000 165.502109 -87.525828 166.777346 -38.906933 -6.623588 -28.657650 21.568660 13.456005 -3.346075 6.738694 11.016848 24.197970 4.569622 0.945982 1.534679 0.000000 0.000000 0.000000 48.835723 -88.649394 49.951765 6.181831 -0.179674 -7.316045 1.209623 0.059539 -0.875891 0.903561 0.397822 0.275441 0.000000 0.000000 0.000000 1.897241 -0.345544 -1.290619 -10.456091 4.856037 3.797951 29.247307 75.447390 -32.402885 0.000000 0.000000 0.000000 3.125810 -0.474881 -0.825081 5.554986 -4.190610 11.104224 -2.150361 -3.592224 1.293225 -38.405662 5.935723 4.464650 -4.018083 -10.306376 -0.156993 0.000000 0.000000 0.000000 2.631094 -0.375601 -1.463690 -1.569442 0.397696 -18.646387 2.473805 1.863984 6.556531 -61.189008 53.781012 54.226644 179.754788 41.283849 -178.783617 0.000000 0.000000 0.000000 
1.955345 29.599216 0.085810 0.000000 0.000000 0.000000 155.333023 -87.433566 156.079781 -24.542050 31.676850 43.228670 32.526898 -15.587026 -0.090284 -17.501972 10.069597 -25.646010 -0.330151 -0.515110 -0.254793 0.000000 0.000000 0.000000 165.676320 -87.556557 166.960108 -38.876580 -6.581207 -28.663285 21.503054 13.454854 -3.353093 6.737584 11.027746 24.244634 4.526454 0.934176 1.527080 0.000000 0.000000 0.000000 49.682963 -88.674556 50.825596 6.184747 -0.181936 -7.311412 1.208737 0.038739 -0.882854 0.874833 0.308272 0.270556 0.000000 0.000000 0.000000 1.905291 -0.360749 -1.289518 -10.432474 4.844735 3.796635 29.318027 75.517331 -32.507428 0.000000 0.000000 0.000000 3.128384 -0.493387 -0.823302 5.564060 -4.210846 11.136091 -2.086810 -3.573166 1.343861 -38.394802 5.959590 4.454232 -3.984945 -10.335037 -0.140849 0.000000 0.000000 0.000000 2.619052 -0.395983 -1.457174 -1.574223 0.352791 -18.677888 2.430089 1.875840 6.522143 -61.363458 53.848361 54.297268 179.739064 41.214062 -178.784805 0.000000 0.000000 0.000000 
1.955909 29.596485 0.092068 0.000000 0.000000 0.000000 155.678917 -87.428388 156.437738 -24.547531 31.637785 43.231952 32.531938 -15.597698 -0.091004 -17.489601 10.071092 -25.659983 -0.316382 -0.513290 -0.260976 0.000000 0.000000 0.000000 165.636104 -87.588078 166.928075 -38.843293 -6.569731 -28.690285 21.457191 13.413332 -3.357617 6.641045 10.997526 24.244088 4.555417 0.937802 1.535365 0.000000 0.000000 0.000000 49.599884 -88.672043 50.770148 6.194333 -0.184065 -7.298101 1.219234 -0.000313 -0.887842 0.861655 0.244510 0.283948 0.000000 0.000000 0.000000 1.921073 -0.397120 -1.289664 -10.384600 4.802684 3.818552 29.636286 75.637733 -32.887149 0.000000 0.000000 0.000000 3.140515 -0.534847 -0.823367 5.582265 -4.226007 11.193895 -2.037051 -3.574517 1.430850 -38.399330 6.074438 4.360990 -3.953714 -10.438750 -0.128446 0.000000 0.000000 0.000000 2.620363 -0.436857 -1.446837 -1.579994 0.291479 -18.733911 2.396744 1.860040 6.507306 -61.569012 53.942519 54.363870 179.718123 41.192328 -178.801157 0.000000 0.000000 0.000000 
1.954309 29.591370 0.096869 0.000000 0.000000 0.000000 155.998283 -87.409496 156.772594 -24.543250 31.582364 43.218531 32.537508 -15.606572 -0.095923 -17.466061 10.078893 -25.685896 -0.294671 -0.510350 -0.272880 0.000000 0.000000 0.000000 165.319128 -87.613200 166.620662 -38.825118 -6.585966 -28.742809 21.439996 13.353413 -3.354816 6.500342 10.946618 24.225363 4.613718 0.957284 1.548539 0.000000 0.000000 0.000000 48.627805 -88.641307 49.821070 6.210380 -0.188299 -7.278735 1.239252 -0.059229 -0.889970 0.870983 0.208477 0.318915 0.000000 0.000000 0.000000 1.939157 -0.456813 -1.290577 -10.317062 4.733338 3.864165 30.179102 75.808522 -33.513484 0.000000 0.000000 0.000000 3.156403 -0.602227 -0.824595 5.609301 -4.233262 11.284588 -2.012790 -3.590473 1.523437 -38.430985 6.283039 4.200369 -3.929963 -10.592171 -0.116073 0.000000 0.000000 0.000000 2.630882 -0.499661 -1.432776 -1.587960 0.215376 -18.810621 2.367920 1.816790 6.510164 -61.762013 54.030153 54.429047 179.695529 41.225574 -178.829515 0.000000 0.000000 0.000000 
1.950901 29.585751 0.100492 0.000000 0.000000 0.000000 156.165513 -87.376165 156.953075 -24.535076 31.511419 43.194642 32.534045 -15.607373 -0.107226 -17.430880 10.083843 -25.714516 -0.267403 -0.506591 -0.288104 0.000000 0.000000 0.000000 164.691502 -87.633711 166.001833 -38.826227 -6.617991 -28.823975 21.449721 13.308931 -3.339291 6.362973 10.902672 24.243145 4.627630 0.987686 1.557927 0.000000 0.000000 0.000000 47.111646 -88.590552 48.323537 6.230313 -0.195828 -7.253476 1.264262 -0.140595 -0.889265 0.884978 0.210069 0.338533 0.000000 0.000000 0.000000 1.951853 -0.541549 -1.291731 -10.233948 4.638282 3.933686 30.887519 76.017389 -34.314625 0.000000 0.000000 0.000000 3.172262 -0.698212 -0.827226 5.645557 -4.229853 11.412319 -2.009818 -3.626011 1.589314 -38.497046 6.569161 3.995435 -3.916109 -10.756371 -0.100972 0.000000 0.000000 0.000000 2.642902 -0.585369 -1.415342 -1.598848 0.124799 -18.905849 2.341148 1.762674 6.520024 -61.932337 54.073856 54.506265 179.678453 41.306884 -178.866931 0.000000 0.000000 0.000000 
1.946632 29.581657 0.101311 0.000000 0.000000 0.000000 155.988024 -87.339050 156.779698 -24.520944 31.425280 43.165552 32.517062 -15.597015 -0.124920 -17.385475 10.075002 -25.733824 -0.237421 -0.503777 -0.302773 0.000000 0.000000 0.000000 163.809178 -87.652309 165.125137 -38.831463 -6.652558 -28.923843 21.478488 13.296969 -3.316088 6.256155 10.867338 24.315998 4.567855 1.021832 1.557215 0.000000 0.000000 0.000000 45.301756 -88.527666 46.527621 6.248838 -0.205989 -7.221381 1.288655 -0.247952 -0.887909 0.879400 0.251356 0.336825 0.000000 0.000000 0.000000 1.954448 -0.652794 -1.294611 -10.142828 4.519793 4.022385 31.702815 76.246556 -35.217374 0.000000 0.000000 0.000000 3.185205 -0.822863 -0.830166 5.691680 -4.213649 11.574766 -2.027934 -3.680069 1.630297 -38.597785 6.905103 3.760827 -3.910657 -10.899538 -0.080896 0.000000 0.000000 0.000000 2.648487 -0.696150 -1.395060 -1.614199 0.025458 -19.021971 2.320316 1.707873 6.533983 -62.079951 54.051894 54.618827 179.671049 41.412827 -178.904128 0.000000 0.000000 0.000000 
1.942251 29.581251 0.102369 0.000000 0.000000 0.000000 155.375452 -87.316933 156.159476 -24.509430 31.332219 43.141401 32.487583 -15.568784 -0.149404 -17.342357 10.044048 -25.733274 -0.204945 -0.502637 -0.312834 0.000000 0.000000 0.000000 162.798064 -87.672076 164.115963 -38.825920 -6.674720 -29.031958 21.507502 13.308947 -3.289751 6.172672 10.815174 24.426884 4.465241 1.050383 1.552639 0.000000 0.000000 0.000000 43.267350 -88.452118 44.500581 6.263128 -0.216461 -7.179089 1.307957 -0.383189 -0.886654 0.863612 0.313727 0.325637 0.000000 0.000000 0.000000 1.945240 -0.790007 -1.300028 -10.045750 4.387976 4.122158 32.578442 76.486678 -36.167166 0.000000 0.000000 0.000000 3.193721 -0.975344 -0.832017 5.745503 -4.184008 11.768845 -2.056255 -3.709940 1.649211 -38.718088 7.254623 3.512129 -3.915810 -11.015829 -0.055046 0.000000 0.000000 0.000000 2.644033 -0.833502 -1.375099 -1.634122 -0.078655 -19.157361 2.306902 1.657488 6.540005 -62.224499 53.965304 54.770601 179.673071 41.519152 -178.933239 0.000000 0.000000 0.000000 
1.939105 29.584467 0.103022 0.000000 0.000000 0.000000 154.352713 -87.326284 155.117735 -24.513120 31.231081 43.130213 32.448149 -15.524334 -0.176522 -17.307184 9.977528 -25.714178 -0.170541 -0.503741 -0.313538 0.000000 0.000000 0.000000 161.609980 -87.707313 162.921773 -38.796427 -6.674457 -29.132539 21.528147 13.326006 -3.263039 6.085121 10.712201 24.534256 4.371515 1.066172 1.553444 0.000000 0.000000 0.000000 41.175167 -88.367335 42.409857 6.274101 -0.224434 -7.122808 1.317962 -0.544911 -0.886265 0.852200 0.367144 0.311191 0.000000 0.000000 0.000000 1.926860 -0.951986 -1.308039 -9.952844 4.252145 4.224139 33.496221 76.732859 -37.143873 0.000000 0.000000 0.000000 3.195089 -1.152848 -0.832657 5.804085 -4.142588 11.980428 -2.091431 -3.719073 1.660574 -38.845123 7.584041 3.267588 -3.931987 -11.105982 -0.025429 0.000000 0.000000 0.000000 2.633529 -0.996171 -1.359753 -1.657823 -0.182336 -19.308009 2.277424 1.607822 6.557142 -62.362387 53.844106 54.938985 179.685174 41.598536 -178.949481 0.000000 0.000000 0.000000 
